<svg width="24" height="24" viewBox="0 0 24 24" fill="none" xmlns="http://www.w3.org/2000/svg">
<path d="M3.19604 17.2196C3.24062 17.2196 3.28519 17.2162 3.33062 17.2093C3.79778 17.1356 4.11751 16.6967 4.04465 16.2287C3.97693 15.8027 3.94265 15.3921 3.94265 15.0081C3.94265 13.2714 4.43381 10.9931 4.88811 10.5413C4.89926 10.549 4.91212 10.5585 4.92669 10.5688C5.83015 11.2674 7.14764 12.1211 8.16339 11.4508C9.07114 10.8525 9.16715 9.475 8.48398 6.84432C8.24311 5.93056 8.95971 5.10339 10.0792 3.94448C10.4221 3.58961 10.7701 3.2296 11.0761 2.85244C11.6607 4.24449 12.6284 5.74713 13.9742 7.34919C14.5622 8.03579 15.1691 8.74554 15.6834 9.41842C15.9706 9.79472 16.5106 9.86673 16.8843 9.57786C17.2606 9.2907 17.3318 8.75239 17.0446 8.37609C16.502 7.66721 15.8797 6.93946 15.272 6.22886C13.5499 4.17935 12.5221 2.34842 12.1998 0.714635C12.0627 0.237187 11.6127 -0.0619685 11.1095 0.0108916C10.7144 0.0717513 10.3886 0.380335 10.3038 0.775494C10.1795 1.37209 9.50145 2.07412 8.84571 2.75215C7.72109 3.91534 6.32132 5.36397 6.82448 7.27719C7.26678 8.97955 7.23935 9.68929 7.19135 9.95073C7.0122 9.89501 6.63761 9.72443 5.9733 9.21098C5.18984 8.60925 4.51781 8.79182 4.18694 8.95555C2.28144 9.89416 2.22829 14.9566 2.22829 15.0081C2.22829 15.4812 2.26944 15.9818 2.35001 16.4953C2.41601 16.9179 2.78117 17.2196 3.19604 17.2196Z" fill="#4C4452"/>
<path d="M18.7855 12.6355C18.3466 12.8121 18.1341 13.3118 18.3106 13.7507C18.5001 14.2196 18.5918 14.6302 18.5918 15.0073C18.5918 19.0206 15.308 22.2848 11.2706 22.2848C9.41914 22.2848 7.65935 21.6016 6.31444 20.3604C5.96642 20.0407 5.42469 20.0613 5.10325 20.4101C4.7818 20.7573 4.80409 21.2999 5.15211 21.6213C6.81503 23.1548 8.98798 24 11.2715 24C16.2534 24 20.307 19.9661 20.307 15.0082C20.307 14.4082 20.175 13.7867 19.9016 13.1104C19.7241 12.6698 19.2244 12.4572 18.7855 12.6355Z" fill="#4C4452"/>
<path d="M22.2674 5.78049H19.377C19.1447 5.78049 18.9218 5.87221 18.7573 6.03593C18.2052 6.58538 18.5961 7.52485 19.377 7.52485H20.1767L11.5552 16.1061L9.19886 14.2503C8.87313 13.9923 8.40768 14.0068 8.09738 14.2837L0.285921 21.2637C-0.0672364 21.5791 -0.0972376 22.1217 0.218204 22.474C0.513073 22.8032 1.06424 22.8675 1.42854 22.5426L8.70341 16.0418L11.0915 17.9224C11.4327 18.1924 11.9195 18.1616 12.2264 17.8573L21.3914 8.73432V9.52893C21.3914 10.3064 22.3351 10.6955 22.8871 10.1461C23.0517 9.98238 23.1434 9.76037 23.1434 9.52893V6.65224C23.1434 6.1705 22.7508 5.78049 22.2674 5.78049Z" fill="#4C4452"/>
</svg>
