<svg width="24" height="24" viewBox="0 0 24 24" fill="none" xmlns="http://www.w3.org/2000/svg">
<path d="M13.8496 3.40424L13.85 3.40452L19.6099 7.43442C20.0387 7.73461 20.459 8.23876 20.7726 8.83959C21.0863 9.44041 21.26 10.0739 21.26 10.6V17.38C21.26 19.5158 19.5258 21.25 17.39 21.25H6.60999C4.47631 21.25 2.73999 19.5079 2.73999 17.37V10.47C2.73999 9.98334 2.89682 9.38223 3.18285 8.80129C3.46868 8.22077 3.85159 7.72532 4.24126 7.42138L4.24143 7.42125L9.24936 3.51286C9.24969 3.5126 9.25003 3.51234 9.25036 3.51208C10.5006 2.54415 12.5492 2.49312 13.8496 3.40424ZM12 19.5C12.8242 19.5 13.5 18.8242 13.5 18V15C13.5 14.1758 12.8242 13.5 12 13.5C11.1758 13.5 10.5 14.1758 10.5 15V18C10.5 18.8242 11.1758 19.5 12 19.5Z" stroke="#4C4452" stroke-width="1.5"/>
</svg>
