<svg width="24" height="23" viewBox="0 0 24 23" fill="none" xmlns="http://www.w3.org/2000/svg">
<path d="M23.7522 6.40708L20.7434 0.389381C20.6372 0.141593 20.3894 0 20.1062 0H3.89381C3.61062 0 3.36283 0.141593 3.25664 0.389381L0.247787 6.40708C0.106194 6.54867 0 6.72566 0 6.93805V9.02655C0 10.3363 0.884956 11.4336 2.0885 11.7168V20.9558C2.0885 22.0531 2.97345 22.9027 4.0354 22.9027H19.9646C21.0619 22.9027 21.9115 22.0177 21.9115 20.9558V11.7522C23.115 11.4336 24 10.3363 24 9.06195V6.97345C24 6.72566 23.8938 6.51327 23.7522 6.40708ZM4.31858 1.41593H19.6814L22.0885 6.23009H1.9115L4.31858 1.41593ZM14.3009 21.5221H9.69911V15.1504C9.69911 15.0796 9.73451 15.0442 9.73451 15.0442H14.2655C14.2655 15.0442 14.3009 15.0796 14.3009 15.1504V21.5221ZM19.9646 21.5221H15.7168V15.1504C15.7168 14.3009 15.0796 13.6283 14.2655 13.6283H9.73451C8.92035 13.6283 8.28319 14.3009 8.28319 15.1504V21.5221H4.0354C3.75221 21.5221 3.50442 21.2743 3.50442 20.9912V11.7522C4.17699 11.5752 4.70796 11.1858 5.09734 10.6549C5.59292 11.3982 6.44248 11.8584 7.39823 11.8584C8.35398 11.8584 9.20354 11.3628 9.69911 10.6549C10.1947 11.3982 11.0442 11.8584 12 11.8584C12.9558 11.8584 13.8053 11.3628 14.3009 10.6549C14.7965 11.3982 15.646 11.8584 16.6018 11.8584C17.5575 11.8584 18.4071 11.3628 18.9027 10.6549C19.292 11.1858 19.8584 11.6106 20.4956 11.7522V20.9912C20.4956 21.2743 20.2478 21.5221 19.9646 21.5221ZM21.2035 10.4071C20.4248 10.4071 19.823 9.76991 19.823 9.02655C19.823 8.63717 19.5044 8.31858 19.115 8.31858H18.6903C18.3009 8.31858 17.9823 8.63717 17.9823 9.02655C17.9823 9.80531 17.3451 10.4071 16.6018 10.4071C15.8584 10.4071 15.2212 9.76991 15.2212 9.02655C15.2212 8.63717 14.9027 8.31858 14.5133 8.31858H14.0885C13.6991 8.31858 13.3805 8.63717 13.3805 9.02655C13.3805 9.80531 12.7434 10.4071 12 10.4071C11.2566 10.4071 10.6195 9.76991 10.6195 9.02655C10.6195 8.63717 10.3009 8.31858 9.9115 8.31858H9.48673C9.09735 8.31858 8.77876 8.63717 8.77876 9.02655C8.77876 9.80531 8.14159 10.4071 7.39823 10.4071C6.65487 10.4071 6.0177 9.76991 6.0177 9.02655C6.0177 8.63717 5.69911 8.31858 5.30973 8.31858H4.88496C4.49557 8.31858 4.17699 8.63717 4.17699 9.02655C4.17699 9.80531 3.53982 10.4071 2.79646 10.4071C2.0531 10.4071 1.41593 9.76991 1.41593 9.02655V7.78761H22.5841V9.02655C22.5841 9.80531 21.9823 10.4071 21.2035 10.4071Z" fill="#4C4452"/>
</svg>
